# xmcd CD database file
#
# Track frame offsets:
#	150
#	13810
#	29385
#	44560
#	65835
#	85735
#	98260
#	115360
#	129985
#	145585
#
# Disc length: 2172 seconds
#
# Revision: 0
# Processed by: cddbd v1.4PL0 Copyright (c) Steve Scherf et al.
# Submitted via: CDex 1.50
#
DISCID=80087a0a
DTITLE=Jimmy Witherspoon - Jimmy Witherspoon - live at the Rennaissance Club, Los Angeles, CA., 02.12.1959
DYEAR=1996
DGENRE=Jazz
TTITLE0=Time's Gettin' Tougher Than Tough
TTITLE1=How Long
TTITLE2=Corina Corina
TTITLE3=C. C. Rider
TTITLE4=Roll 'Em Pete
TTITLE5=Every Day
TTITLE6=Outskirts Of Town
TTITLE7=Goin' To Kansas City
TTITLE8=Trouble In Mind
TTITLE9=St. Louis Blues
EXTD=YEAR: 1996
EXTT0=
EXTT1=
EXTT2=
EXTT3=
EXTT4=
EXTT5=
EXTT6=
EXTT7=
EXTT8=
EXTT9=
PLAYORDER=
